<svg width="80px" height="80px" viewBox="0 0 80 80" version="1.1" xmlns="http://www.w3.org/2000/svg" xmlns:xlink="http://www.w3.org/1999/xlink">
    <path d="M0,39.5 L0,38.5 C0,38.2238576 0.223857625,38 0.5,38 L2,38 L2,32 L0.5,32 C0.223857625,32 0,31.7761424 0,31.5 L0,30.5 C0,30.2238576 0.223857625,30 0.5,30 C0.223857625,30 0,29.7761424 0,29.5 L0,28.5 C0,28.2238576 0.223857625,28 0.5,28 L2,28 L2,22 L0.5,22 C0.223857625,22 0,21.7761424 0,21.5 L0,20.5 C0,20.2238576 0.223857625,20 0.5,20 C0.223857625,20 0,19.7761424 0,19.5 L0,18.5 C0,18.2238576 0.223857625,18 0.5,18 L2,18 L2,12 L0.5,12 C0.223857625,12 0,11.7761424 0,11.5 L0,10.5 C0,10.2238576 0.223857625,10 0.5,10 C0.223857625,10 0,9.77614237 0,9.5 L0,8.5 C0,8.22385763 0.223857625,8 0.5,8 L2,8 L2,2 L0.5,2 C0.223857625,2 0,1.77614237 0,1.5 L0,0.5 C0,0.223857625 0.223857625,0 0.5,0 L5.5,0 C5.77614237,0 6,0.223857625 6,0.5 L6,1.5 C6,1.77614237 5.77614237,2 5.5,2 L4,2 L4,8 L5.5,8 C5.77614237,8 6,8.22385763 6,8.5 L6,9.5 C6,9.77614237 5.77614237,10 5.5,10 C5.77614237,10 6,10.2238576 6,10.5 L6,11.5 C6,11.7761424 5.77614237,12 5.5,12 L4,12 L4,18 L5.5,18 C5.77614237,18 6,18.2238576 6,18.5 L6,19.5 C6,19.7761424 5.77614237,20 5.5,20 C5.77614237,20 6,20.2238576 6,20.5 L6,21.5 C6,21.7761424 5.77614237,22 5.5,22 L4,22 L4,28 L5.5,28 C5.77614237,28 6,28.2238576 6,28.5 L6,29.5 C6,29.7761424 5.77614237,30 5.5,30 C5.77614237,30 6,30.2238576 6,30.5 L6,31.5 C6,31.7761424 5.77614237,32 5.5,32 L4,32 L4,38 L5.5,38 C5.77614237,38 6,38.2238576 6,38.5 L6,39.5 C6,39.7761424 5.77614237,40 5.5,40 C5.77614237,40 6,40.2238576 6,40.5 L6,41.5 C6,41.7761424 5.77614237,42 5.5,42 L4,42 L4,48 L5.5,48 C5.77614237,48 6,48.2238576 6,48.5 L6,49.5 C6,49.7761424 5.77614237,50 5.5,50 C5.77614237,50 6,50.2238576 6,50.5 L6,51.5 C6,51.7761424 5.77614237,52 5.5,52 L4,52 L4,58 L5.5,58 C5.77614237,58 6,58.2238576 6,58.5 L6,59.5 C6,59.7761424 5.77614237,60 5.5,60 C5.77614237,60 6,60.2238576 6,60.5 L6,61.5 C6,61.7761424 5.77614237,62 5.5,62 L4,62 L4,68 L5.5,68 C5.77614237,68 6,68.2238576 6,68.5 L6,69.5 C6,69.7761424 5.77614237,70 5.5,70 C5.77614237,70 6,70.2238576 6,70.5 L6,71.5 C6,71.7761424 5.77614237,72 5.5,72 L4,72 L4,78 L5.5,78 C5.77614237,78 6,78.2238576 6,78.5 L6,79.5 C6,79.7761424 5.77614237,80 5.5,80 L0.5,80 C0.223857625,80 0,79.7761424 0,79.5 L0,78.5 C0,78.2238576 0.223857625,78 0.5,78 L2,78 L2,72 L0.5,72 C0.223857625,72 0,71.7761424 0,71.5 L0,70.5 C0,70.2238576 0.223857625,70 0.5,70 C0.223857625,70 0,69.7761424 0,69.5 L0,68.5 C0,68.2238576 0.223857625,68 0.5,68 L2,68 L2,62 L0.5,62 C0.223857625,62 0,61.7761424 0,61.5 L0,60.5 C0,60.2238576 0.223857625,60 0.5,60 C0.223857625,60 0,59.7761424 0,59.5 L0,58.5 C0,58.2238576 0.223857625,58 0.5,58 L2,58 L2,52 L0.5,52 C0.223857625,52 0,51.7761424 0,51.5 L0,50.5 C0,50.2238576 0.223857625,50 0.5,50 C0.223857625,50 0,49.7761424 0,49.5 L0,48.5 C0,48.2238576 0.223857625,48 0.5,48 L2,48 L2,42 L0.5,42 C0.223857625,42 0,41.7761424 0,41.5 L0,40.5 C0,40.2238576 0.223857625,40 0.5,40 C0.223857625,40 0,39.7761424 0,39.5 Z M75,39.5 L75,32 L73.5,32 C73.2238576,32 73,31.7761424 73,31.5 L73,30.5 C73,30.2238576 73.2238576,30 73.5,30 L75.5,30 C75.2238576,30 75,29.7761424 75,29.5 L75,22 L73.5,22 C73.2238576,22 73,21.7761424 73,21.5 L73,20.5 C73,20.2238576 73.2238576,20 73.5,20 L75.5,20 C75.2238576,20 75,19.7761424 75,19.5 L75,12 L73.5,12 C73.2238576,12 73,11.7761424 73,11.5 L73,10.5 C73,10.2238576 73.2238576,10 73.5,10 L75.5,10 C75.2238576,10 75,9.77614237 75,9.5 L75,2 L73.5,2 C73.2238576,2 73,1.77614237 73,1.5 L73,0.5 C73,0.223857625 73.2238576,0 73.5,0 L78.5,0 C78.7761424,0 79,0.223857625 79,0.5 L79,1.5 C79,1.77614237 78.7761424,2 78.5,2 L77,2 L77,9.5 C77,9.77614237 76.7761424,10 76.5,10 L78.5,10 C78.7761424,10 79,10.2238576 79,10.5 L79,11.5 C79,11.7761424 78.7761424,12 78.5,12 L77,12 L77,19.5 C77,19.7761424 76.7761424,20 76.5,20 L78.5,20 C78.7761424,20 79,20.2238576 79,20.5 L79,21.5 C79,21.7761424 78.7761424,22 78.5,22 L77,22 L77,29.5 C77,29.7761424 76.7761424,30 76.5,30 L78.5,30 C78.7761424,30 79,30.2238576 79,30.5 L79,31.5 C79,31.7761424 78.7761424,32 78.5,32 L77,32 L77,39.5 C77,39.7761424 76.7761424,40 76.5,40 L78.5,40 C78.7761424,40 79,40.2238576 79,40.5 L79,41.5 C79,41.7761424 78.7761424,42 78.5,42 L77,42 L77,49.5 C77,49.7761424 76.7761424,50 76.5,50 L78.5,50 C78.7761424,50 79,50.2238576 79,50.5 L79,51.5 C79,51.7761424 78.7761424,52 78.5,52 L77,52 L77,59.5 C77,59.7761424 76.7761424,60 76.5,60 L78.5,60 C78.7761424,60 79,60.2238576 79,60.5 L79,61.5 C79,61.7761424 78.7761424,62 78.5,62 L77,62 L77,69.5 C77,69.7761424 76.7761424,70 76.5,70 L78.5,70 C78.7761424,70 79,70.2238576 79,70.5 L79,71.5 C79,71.7761424 78.7761424,72 78.5,72 L77,72 L77,79.5 C77,79.7761424 76.7761424,80 76.5,80 L75.5,80 C75.2238576,80 75,79.7761424 75,79.5 L75,72 L73.5,72 C73.2238576,72 73,71.7761424 73,71.5 L73,70.5 C73,70.2238576 73.2238576,70 73.5,70 L75.5,70 C75.2238576,70 75,69.7761424 75,69.5 L75,62 L73.5,62 C73.2238576,62 73,61.7761424 73,61.5 L73,60.5 C73,60.2238576 73.2238576,60 73.5,60 L75.5,60 C75.2238576,60 75,59.7761424 75,59.5 L75,52 L73.5,52 C73.2238576,52 73,51.7761424 73,51.5 L73,50.5 C73,50.2238576 73.2238576,50 73.5,50 L75.5,50 C75.2238576,50 75,49.7761424 75,49.5 L75,42 L73.5,42 C73.2238576,42 73,41.7761424 73,41.5 L73,40.5 C73,40.2238576 73.2238576,40 73.5,40 L75.5,40 C75.2238576,40 75,39.7761424 75,39.5 Z M66.5,39.5 L66.5,30.5 C66.5,30.2238576 66.7238576,30 67,30 C66.7238576,30 66.5,29.7761424 66.5,29.5 L66.5,20.5 C66.5,20.2238576 66.7238576,20 67,20 C66.7238576,20 66.5,19.7761424 66.5,19.5 L66.5,10.5 C66.5,10.2238576 66.7238576,10 67,10 C66.7238576,10 66.5,9.77614237 66.5,9.5 L66.5,0.5 C66.5,0.223857625 66.7238576,0 67,0 L72,0 C72.2761424,0 72.5,0.223857625 72.5,0.5 L72.5,9.5 C72.5,9.74545989 72.3231248,9.94960837 72.0898756,9.99194433 L72,10 C72.2761424,10 72.5,10.2238576 72.5,10.5 L72.5,19.5 C72.5,19.7454599 72.3231248,19.9496084 72.0898756,19.9919443 L72,20 C72.2761424,20 72.5,20.2238576 72.5,20.5 L72.5,29.5 C72.5,29.7454599 72.3231248,29.9496084 72.0898756,29.9919443 L72,30 C72.2761424,30 72.5,30.2238576 72.5,30.5 L72.5,39.5 C72.5,39.7454599 72.3231248,39.9496084 72.0898756,39.9919443 L72,40 C72.2761424,40 72.5,40.2238576 72.5,40.5 L72.5,49.5 C72.5,49.7454599 72.3231248,49.9496084 72.0898756,49.9919443 L72,50 C72.2761424,50 72.5,50.2238576 72.5,50.5 L72.5,59.5 C72.5,59.7454599 72.3231248,59.9496084 72.0898756,59.9919443 L72,60 C72.2761424,60 72.5,60.2238576 72.5,60.5 L72.5,69.5 C72.5,69.7454599 72.3231248,69.9496084 72.0898756,69.9919443 L72,70 C72.2761424,70 72.5,70.2238576 72.5,70.5 L72.5,79.5 C72.5,79.7454599 72.3231248,79.9496084 72.0898756,79.9919443 L72,80 L67,80 C66.7238576,80 66.5,79.7761424 66.5,79.5 L66.5,70.5 C66.5,70.2238576 66.7238576,70 67,70 C66.7238576,70 66.5,69.7761424 66.5,69.5 L66.5,60.5 C66.5,60.2238576 66.7238576,60 67,60 C66.7238576,60 66.5,59.7761424 66.5,59.5 L66.5,50.5 C66.5,50.2238576 66.7238576,50 67,50 C66.7238576,50 66.5,49.7761424 66.5,49.5 L66.5,40.5 C66.5,40.2238576 66.7238576,40 67,40 C66.7238576,40 66.5,39.7761424 66.5,39.5 Z M60,39.5 L60,38.5 C60,38.2238576 60.2238576,38 60.5,38 L62,38 L62,32 L60.5,32 C60.2238576,32 60,31.7761424 60,31.5 L60,30.5 C60,30.2238576 60.2238576,30 60.5,30 C60.2238576,30 60,29.7761424 60,29.5 L60,28.5 C60,28.2238576 60.2238576,28 60.5,28 L62,28 L62,22 L60.5,22 C60.2238576,22 60,21.7761424 60,21.5 L60,20.5 C60,20.2238576 60.2238576,20 60.5,20 C60.2238576,20 60,19.7761424 60,19.5 L60,18.5 C60,18.2238576 60.2238576,18 60.5,18 L62,18 L62,12 L60.5,12 C60.2238576,12 60,11.7761424 60,11.5 L60,10.5 C60,10.2238576 60.2238576,10 60.5,10 C60.2238576,10 60,9.77614237 60,9.5 L60,8.5 C60,8.22385763 60.2238576,8 60.5,8 L62,8 L62,2 L60.5,2 C60.2238576,2 60,1.77614237 60,1.5 L60,0.5 C60,0.223857625 60.2238576,0 60.5,0 L65.5,0 C65.7761424,0 66,0.223857625 66,0.5 L66,1.5 C66,1.77614237 65.7761424,2 65.5,2 L64,2 L64,8 L65.5,8 C65.7761424,8 66,8.22385763 66,8.5 L66,9.5 C66,9.77614237 65.7761424,10 65.5,10 C65.7761424,10 66,10.2238576 66,10.5 L66,11.5 C66,11.7761424 65.7761424,12 65.5,12 L64,12 L64,18 L65.5,18 C65.7761424,18 66,18.2238576 66,18.5 L66,19.5 C66,19.7761424 65.7761424,20 65.5,20 C65.7761424,20 66,20.2238576 66,20.5 L66,21.5 C66,21.7761424 65.7761424,22 65.5,22 L64,22 L64,28 L65.5,28 C65.7761424,28 66,28.2238576 66,28.5 L66,29.5 C66,29.7761424 65.7761424,30 65.5,30 C65.7761424,30 66,30.2238576 66,30.5 L66,31.5 C66,31.7761424 65.7761424,32 65.5,32 L64,32 L64,38 L65.5,38 C65.7761424,38 66,38.2238576 66,38.5 L66,39.5 C66,39.7761424 65.7761424,40 65.5,40 C65.7761424,40 66,40.2238576 66,40.5 L66,41.5 C66,41.7761424 65.7761424,42 65.5,42 L64,42 L64,48 L65.5,48 C65.7761424,48 66,48.2238576 66,48.5 L66,49.5 C66,49.7761424 65.7761424,50 65.5,50 C65.7761424,50 66,50.2238576 66,50.5 L66,51.5 C66,51.7761424 65.7761424,52 65.5,52 L64,52 L64,58 L65.5,58 C65.7761424,58 66,58.2238576 66,58.5 L66,59.5 C66,59.7761424 65.7761424,60 65.5,60 C65.7761424,60 66,60.2238576 66,60.5 L66,61.5 C66,61.7761424 65.7761424,62 65.5,62 L64,62 L64,68 L65.5,68 C65.7761424,68 66,68.2238576 66,68.5 L66,69.5 C66,69.7761424 65.7761424,70 65.5,70 C65.7761424,70 66,70.2238576 66,70.5 L66,71.5 C66,71.7761424 65.7761424,72 65.5,72 L64,72 L64,78 L65.5,78 C65.7761424,78 66,78.2238576 66,78.5 L66,79.5 C66,79.7761424 65.7761424,80 65.5,80 L60.5,80 C60.2238576,80 60,79.7761424 60,79.5 L60,78.5 C60,78.2238576 60.2238576,78 60.5,78 L62,78 L62,72 L60.5,72 C60.2238576,72 60,71.7761424 60,71.5 L60,70.5 C60,70.2238576 60.2238576,70 60.5,70 C60.2238576,70 60,69.7761424 60,69.5 L60,68.5 C60,68.2238576 60.2238576,68 60.5,68 L62,68 L62,62 L60.5,62 C60.2238576,62 60,61.7761424 60,61.5 L60,60.5 C60,60.2238576 60.2238576,60 60.5,60 C60.2238576,60 60,59.7761424 60,59.5 L60,58.5 C60,58.2238576 60.2238576,58 60.5,58 L62,58 L62,52 L60.5,52 C60.2238576,52 60,51.7761424 60,51.5 L60,50.5 C60,50.2238576 60.2238576,50 60.5,50 C60.2238576,50 60,49.7761424 60,49.5 L60,48.5 C60,48.2238576 60.2238576,48 60.5,48 L62,48 L62,42 L60.5,42 C60.2238576,42 60,41.7761424 60,41.5 L60,40.5 C60,40.2238576 60.2238576,40 60.5,40 C60.2238576,40 60,39.7761424 60,39.5 Z M55,39.5 L55,32 L53.5,32 C53.2238576,32 53,31.7761424 53,31.5 L53,30.5 C53,30.2238576 53.2238576,30 53.5,30 L55.5,30 C55.2238576,30 55,29.7761424 55,29.5 L55,22 L53.5,22 C53.2238576,22 53,21.7761424 53,21.5 L53,20.5 C53,20.2238576 53.2238576,20 53.5,20 L55.5,20 C55.2238576,20 55,19.7761424 55,19.5 L55,12 L53.5,12 C53.2238576,12 53,11.7761424 53,11.5 L53,10.5 C53,10.2238576 53.2238576,10 53.5,10 L55.5,10 C55.2238576,10 55,9.77614237 55,9.5 L55,2 L53.5,2 C53.2238576,2 53,1.77614237 53,1.5 L53,0.5 C53,0.223857625 53.2238576,0 53.5,0 L58.5,0 C58.7761424,0 59,0.223857625 59,0.5 L59,1.5 C59,1.77614237 58.7761424,2 58.5,2 L57,2 L57,9.5 C57,9.77614237 56.7761424,10 56.5,10 L58.5,10 C58.7761424,10 59,10.2238576 59,10.5 L59,11.5 C59,11.7761424 58.7761424,12 58.5,12 L57,12 L57,19.5 C57,19.7761424 56.7761424,20 56.5,20 L58.5,20 C58.7761424,20 59,20.2238576 59,20.5 L59,21.5 C59,21.7761424 58.7761424,22 58.5,22 L57,22 L57,29.5 C57,29.7761424 56.7761424,30 56.5,30 L58.5,30 C58.7761424,30 59,30.2238576 59,30.5 L59,31.5 C59,31.7761424 58.7761424,32 58.5,32 L57,32 L57,39.5 C57,39.7761424 56.7761424,40 56.5,40 L58.5,40 C58.7761424,40 59,40.2238576 59,40.5 L59,41.5 C59,41.7761424 58.7761424,42 58.5,42 L57,42 L57,49.5 C57,49.7761424 56.7761424,50 56.5,50 L58.5,50 C58.7761424,50 59,50.2238576 59,50.5 L59,51.5 C59,51.7761424 58.7761424,52 58.5,52 L57,52 L57,59.5 C57,59.7761424 56.7761424,60 56.5,60 L58.5,60 C58.7761424,60 59,60.2238576 59,60.5 L59,61.5 C59,61.7761424 58.7761424,62 58.5,62 L57,62 L57,69.5 C57,69.7761424 56.7761424,70 56.5,70 L58.5,70 C58.7761424,70 59,70.2238576 59,70.5 L59,71.5 C59,71.7761424 58.7761424,72 58.5,72 L57,72 L57,79.5 C57,79.7761424 56.7761424,80 56.5,80 L55.5,80 C55.2238576,80 55,79.7761424 55,79.5 L55,72 L53.5,72 C53.2238576,72 53,71.7761424 53,71.5 L53,70.5 C53,70.2238576 53.2238576,70 53.5,70 L55.5,70 C55.2238576,70 55,69.7761424 55,69.5 L55,62 L53.5,62 C53.2238576,62 53,61.7761424 53,61.5 L53,60.5 C53,60.2238576 53.2238576,60 53.5,60 L55.5,60 C55.2238576,60 55,59.7761424 55,59.5 L55,52 L53.5,52 C53.2238576,52 53,51.7761424 53,51.5 L53,50.5 C53,50.2238576 53.2238576,50 53.5,50 L55.5,50 C55.2238576,50 55,49.7761424 55,49.5 L55,42 L53.5,42 C53.2238576,42 53,41.7761424 53,41.5 L53,40.5 C53,40.2238576 53.2238576,40 53.5,40 L55.5,40 C55.2238576,40 55,39.7761424 55,39.5 Z M46.5,39.5 L46.5,30.5 C46.5,30.2238576 46.7238576,30 47,30 C46.7238576,30 46.5,29.7761424 46.5,29.5 L46.5,20.5 C46.5,20.2238576 46.7238576,20 47,20 C46.7238576,20 46.5,19.7761424 46.5,19.5 L46.5,10.5 C46.5,10.2238576 46.7238576,10 47,10 C46.7238576,10 46.5,9.77614237 46.5,9.5 L46.5,0.5 C46.5,0.223857625 46.7238576,0 47,0 L52,0 C52.2761424,0 52.5,0.223857625 52.5,0.5 L52.5,9.5 C52.5,9.74545989 52.3231248,9.94960837 52.0898756,9.99194433 L52,10 C52.2761424,10 52.5,10.2238576 52.5,10.5 L52.5,19.5 C52.5,19.7454599 52.3231248,19.9496084 52.0898756,19.9919443 L52,20 C52.2761424,20 52.5,20.2238576 52.5,20.5 L52.5,29.5 C52.5,29.7454599 52.3231248,29.9496084 52.0898756,29.9919443 L52,30 C52.2761424,30 52.5,30.2238576 52.5,30.5 L52.5,39.5 C52.5,39.7454599 52.3231248,39.9496084 52.0898756,39.9919443 L52,40 C52.2761424,40 52.5,40.2238576 52.5,40.5 L52.5,49.5 C52.5,49.7454599 52.3231248,49.9496084 52.0898756,49.9919443 L52,50 C52.2761424,50 52.5,50.2238576 52.5,50.5 L52.5,59.5 C52.5,59.7454599 52.3231248,59.9496084 52.0898756,59.9919443 L52,60 C52.2761424,60 52.5,60.2238576 52.5,60.5 L52.5,69.5 C52.5,69.7454599 52.3231248,69.9496084 52.0898756,69.9919443 L52,70 C52.2761424,70 52.5,70.2238576 52.5,70.5 L52.5,79.5 C52.5,79.7454599 52.3231248,79.9496084 52.0898756,79.9919443 L52,80 L47,80 C46.7238576,80 46.5,79.7761424 46.5,79.5 L46.5,70.5 C46.5,70.2238576 46.7238576,70 47,70 C46.7238576,70 46.5,69.7761424 46.5,69.5 L46.5,60.5 C46.5,60.2238576 46.7238576,60 47,60 C46.7238576,60 46.5,59.7761424 46.5,59.5 L46.5,50.5 C46.5,50.2238576 46.7238576,50 47,50 C46.7238576,50 46.5,49.7761424 46.5,49.5 L46.5,40.5 C46.5,40.2238576 46.7238576,40 47,40 C46.7238576,40 46.5,39.7761424 46.5,39.5 Z M40,39.5 L40,38.5 C40,38.2238576 40.2238576,38 40.5,38 L42,38 L42,32 L40.5,32 C40.2238576,32 40,31.7761424 40,31.5 L40,30.5 C40,30.2238576 40.2238576,30 40.5,30 C40.2238576,30 40,29.7761424 40,29.5 L40,28.5 C40,28.2238576 40.2238576,28 40.5,28 L42,28 L42,22 L40.5,22 C40.2238576,22 40,21.7761424 40,21.5 L40,20.5 C40,20.2238576 40.2238576,20 40.5,20 C40.2238576,20 40,19.7761424 40,19.5 L40,18.5 C40,18.2238576 40.2238576,18 40.5,18 L42,18 L42,12 L40.5,12 C40.2238576,12 40,11.7761424 40,11.5 L40,10.5 C40,10.2238576 40.2238576,10 40.5,10 C40.2238576,10 40,9.77614237 40,9.5 L40,8.5 C40,8.22385763 40.2238576,8 40.5,8 L42,8 L42,2 L40.5,2 C40.2238576,2 40,1.77614237 40,1.5 L40,0.5 C40,0.223857625 40.2238576,0 40.5,0 L45.5,0 C45.7761424,0 46,0.223857625 46,0.5 L46,1.5 C46,1.77614237 45.7761424,2 45.5,2 L44,2 L44,8 L45.5,8 C45.7761424,8 46,8.22385763 46,8.5 L46,9.5 C46,9.77614237 45.7761424,10 45.5,10 C45.7761424,10 46,10.2238576 46,10.5 L46,11.5 C46,11.7761424 45.7761424,12 45.5,12 L44,12 L44,18 L45.5,18 C45.7761424,18 46,18.2238576 46,18.5 L46,19.5 C46,19.7761424 45.7761424,20 45.5,20 C45.7761424,20 46,20.2238576 46,20.5 L46,21.5 C46,21.7761424 45.7761424,22 45.5,22 L44,22 L44,28 L45.5,28 C45.7761424,28 46,28.2238576 46,28.5 L46,29.5 C46,29.7761424 45.7761424,30 45.5,30 C45.7761424,30 46,30.2238576 46,30.5 L46,31.5 C46,31.7761424 45.7761424,32 45.5,32 L44,32 L44,38 L45.5,38 C45.7761424,38 46,38.2238576 46,38.5 L46,39.5 C46,39.7761424 45.7761424,40 45.5,40 C45.7761424,40 46,40.2238576 46,40.5 L46,41.5 C46,41.7761424 45.7761424,42 45.5,42 L44,42 L44,48 L45.5,48 C45.7761424,48 46,48.2238576 46,48.5 L46,49.5 C46,49.7761424 45.7761424,50 45.5,50 C45.7761424,50 46,50.2238576 46,50.5 L46,51.5 C46,51.7761424 45.7761424,52 45.5,52 L44,52 L44,58 L45.5,58 C45.7761424,58 46,58.2238576 46,58.5 L46,59.5 C46,59.7761424 45.7761424,60 45.5,60 C45.7761424,60 46,60.2238576 46,60.5 L46,61.5 C46,61.7761424 45.7761424,62 45.5,62 L44,62 L44,68 L45.5,68 C45.7761424,68 46,68.2238576 46,68.5 L46,69.5 C46,69.7761424 45.7761424,70 45.5,70 C45.7761424,70 46,70.2238576 46,70.5 L46,71.5 C46,71.7761424 45.7761424,72 45.5,72 L44,72 L44,78 L45.5,78 C45.7761424,78 46,78.2238576 46,78.5 L46,79.5 C46,79.7761424 45.7761424,80 45.5,80 L40.5,80 C40.2238576,80 40,79.7761424 40,79.5 L40,78.5 C40,78.2238576 40.2238576,78 40.5,78 L42,78 L42,72 L40.5,72 C40.2238576,72 40,71.7761424 40,71.5 L40,70.5 C40,70.2238576 40.2238576,70 40.5,70 C40.2238576,70 40,69.7761424 40,69.5 L40,68.5 C40,68.2238576 40.2238576,68 40.5,68 L42,68 L42,62 L40.5,62 C40.2238576,62 40,61.7761424 40,61.5 L40,60.5 C40,60.2238576 40.2238576,60 40.5,60 C40.2238576,60 40,59.7761424 40,59.5 L40,58.5 C40,58.2238576 40.2238576,58 40.5,58 L42,58 L42,52 L40.5,52 C40.2238576,52 40,51.7761424 40,51.5 L40,50.5 C40,50.2238576 40.2238576,50 40.5,50 C40.2238576,50 40,49.7761424 40,49.5 L40,48.5 C40,48.2238576 40.2238576,48 40.5,48 L42,48 L42,42 L40.5,42 C40.2238576,42 40,41.7761424 40,41.5 L40,40.5 C40,40.2238576 40.2238576,40 40.5,40 C40.2238576,40 40,39.7761424 40,39.5 Z M35,39.5 L35,32 L33.5,32 C33.2238576,32 33,31.7761424 33,31.5 L33,30.5 C33,30.2238576 33.2238576,30 33.5,30 L35.5,30 C35.2238576,30 35,29.7761424 35,29.5 L35,22 L33.5,22 C33.2238576,22 33,21.7761424 33,21.5 L33,20.5 C33,20.2238576 33.2238576,20 33.5,20 L35.5,20 C35.2238576,20 35,19.7761424 35,19.5 L35,12 L33.5,12 C33.2238576,12 33,11.7761424 33,11.5 L33,10.5 C33,10.2238576 33.2238576,10 33.5,10 L35.5,10 C35.2238576,10 35,9.77614237 35,9.5 L35,2 L33.5,2 C33.2238576,2 33,1.77614237 33,1.5 L33,0.5 C33,0.223857625 33.2238576,0 33.5,0 L38.5,0 C38.7761424,0 39,0.223857625 39,0.5 L39,1.5 C39,1.77614237 38.7761424,2 38.5,2 L37,2 L37,9.5 C37,9.77614237 36.7761424,10 36.5,10 L38.5,10 C38.7761424,10 39,10.2238576 39,10.5 L39,11.5 C39,11.7761424 38.7761424,12 38.5,12 L37,12 L37,19.5 C37,19.7761424 36.7761424,20 36.5,20 L38.5,20 C38.7761424,20 39,20.2238576 39,20.5 L39,21.5 C39,21.7761424 38.7761424,22 38.5,22 L37,22 L37,29.5 C37,29.7761424 36.7761424,30 36.5,30 L38.5,30 C38.7761424,30 39,30.2238576 39,30.5 L39,31.5 C39,31.7761424 38.7761424,32 38.5,32 L37,32 L37,39.5 C37,39.7761424 36.7761424,40 36.5,40 L38.5,40 C38.7761424,40 39,40.2238576 39,40.5 L39,41.5 C39,41.7761424 38.7761424,42 38.5,42 L37,42 L37,49.5 C37,49.7761424 36.7761424,50 36.5,50 L38.5,50 C38.7761424,50 39,50.2238576 39,50.5 L39,51.5 C39,51.7761424 38.7761424,52 38.5,52 L37,52 L37,59.5 C37,59.7761424 36.7761424,60 36.5,60 L38.5,60 C38.7761424,60 39,60.2238576 39,60.5 L39,61.5 C39,61.7761424 38.7761424,62 38.5,62 L37,62 L37,69.5 C37,69.7761424 36.7761424,70 36.5,70 L38.5,70 C38.7761424,70 39,70.2238576 39,70.5 L39,71.5 C39,71.7761424 38.7761424,72 38.5,72 L37,72 L37,79.5 C37,79.7761424 36.7761424,80 36.5,80 L35.5,80 C35.2238576,80 35,79.7761424 35,79.5 L35,72 L33.5,72 C33.2238576,72 33,71.7761424 33,71.5 L33,70.5 C33,70.2238576 33.2238576,70 33.5,70 L35.5,70 C35.2238576,70 35,69.7761424 35,69.5 L35,62 L33.5,62 C33.2238576,62 33,61.7761424 33,61.5 L33,60.5 C33,60.2238576 33.2238576,60 33.5,60 L35.5,60 C35.2238576,60 35,59.7761424 35,59.5 L35,52 L33.5,52 C33.2238576,52 33,51.7761424 33,51.5 L33,50.5 C33,50.2238576 33.2238576,50 33.5,50 L35.5,50 C35.2238576,50 35,49.7761424 35,49.5 L35,42 L33.5,42 C33.2238576,42 33,41.7761424 33,41.5 L33,40.5 C33,40.2238576 33.2238576,40 33.5,40 L35.5,40 C35.2238576,40 35,39.7761424 35,39.5 Z M26.5,39.5 L26.5,30.5 C26.5,30.2238576 26.7238576,30 27,30 C26.7238576,30 26.5,29.7761424 26.5,29.5 L26.5,20.5 C26.5,20.2238576 26.7238576,20 27,20 C26.7238576,20 26.5,19.7761424 26.5,19.5 L26.5,10.5 C26.5,10.2238576 26.7238576,10 27,10 C26.7238576,10 26.5,9.77614237 26.5,9.5 L26.5,0.5 C26.5,0.223857625 26.7238576,0 27,0 L32,0 C32.2761424,0 32.5,0.223857625 32.5,0.5 L32.5,9.5 C32.5,9.74545989 32.3231248,9.94960837 32.0898756,9.99194433 L32,10 C32.2761424,10 32.5,10.2238576 32.5,10.5 L32.5,19.5 C32.5,19.7454599 32.3231248,19.9496084 32.0898756,19.9919443 L32,20 C32.2761424,20 32.5,20.2238576 32.5,20.5 L32.5,29.5 C32.5,29.7454599 32.3231248,29.9496084 32.0898756,29.9919443 L32,30 C32.2761424,30 32.5,30.2238576 32.5,30.5 L32.5,39.5 C32.5,39.7454599 32.3231248,39.9496084 32.0898756,39.9919443 L32,40 C32.2761424,40 32.5,40.2238576 32.5,40.5 L32.5,49.5 C32.5,49.7454599 32.3231248,49.9496084 32.0898756,49.9919443 L32,50 C32.2761424,50 32.5,50.2238576 32.5,50.5 L32.5,59.5 C32.5,59.7454599 32.3231248,59.9496084 32.0898756,59.9919443 L32,60 C32.2761424,60 32.5,60.2238576 32.5,60.5 L32.5,69.5 C32.5,69.7454599 32.3231248,69.9496084 32.0898756,69.9919443 L32,70 C32.2761424,70 32.5,70.2238576 32.5,70.5 L32.5,79.5 C32.5,79.7454599 32.3231248,79.9496084 32.0898756,79.9919443 L32,80 L27,80 C26.7238576,80 26.5,79.7761424 26.5,79.5 L26.5,70.5 C26.5,70.2238576 26.7238576,70 27,70 C26.7238576,70 26.5,69.7761424 26.5,69.5 L26.5,60.5 C26.5,60.2238576 26.7238576,60 27,60 C26.7238576,60 26.5,59.7761424 26.5,59.5 L26.5,50.5 C26.5,50.2238576 26.7238576,50 27,50 C26.7238576,50 26.5,49.7761424 26.5,49.5 L26.5,40.5 C26.5,40.2238576 26.7238576,40 27,40 C26.7238576,40 26.5,39.7761424 26.5,39.5 Z M20,39.5 L20,38.5 C20,38.2238576 20.2238576,38 20.5,38 L22,38 L22,32 L20.5,32 C20.2238576,32 20,31.7761424 20,31.5 L20,30.5 C20,30.2238576 20.2238576,30 20.5,30 C20.2238576,30 20,29.7761424 20,29.5 L20,28.5 C20,28.2238576 20.2238576,28 20.5,28 L22,28 L22,22 L20.5,22 C20.2238576,22 20,21.7761424 20,21.5 L20,20.5 C20,20.2238576 20.2238576,20 20.5,20 C20.2238576,20 20,19.7761424 20,19.5 L20,18.5 C20,18.2238576 20.2238576,18 20.5,18 L22,18 L22,12 L20.5,12 C20.2238576,12 20,11.7761424 20,11.5 L20,10.5 C20,10.2238576 20.2238576,10 20.5,10 C20.2238576,10 20,9.77614237 20,9.5 L20,8.5 C20,8.22385763 20.2238576,8 20.5,8 L22,8 L22,2 L20.5,2 C20.2238576,2 20,1.77614237 20,1.5 L20,0.5 C20,0.223857625 20.2238576,0 20.5,0 L25.5,0 C25.7761424,0 26,0.223857625 26,0.5 L26,1.5 C26,1.77614237 25.7761424,2 25.5,2 L24,2 L24,8 L25.5,8 C25.7761424,8 26,8.22385763 26,8.5 L26,9.5 C26,9.77614237 25.7761424,10 25.5,10 C25.7761424,10 26,10.2238576 26,10.5 L26,11.5 C26,11.7761424 25.7761424,12 25.5,12 L24,12 L24,18 L25.5,18 C25.7761424,18 26,18.2238576 26,18.5 L26,19.5 C26,19.7761424 25.7761424,20 25.5,20 C25.7761424,20 26,20.2238576 26,20.5 L26,21.5 C26,21.7761424 25.7761424,22 25.5,22 L24,22 L24,28 L25.5,28 C25.7761424,28 26,28.2238576 26,28.5 L26,29.5 C26,29.7761424 25.7761424,30 25.5,30 C25.7761424,30 26,30.2238576 26,30.5 L26,31.5 C26,31.7761424 25.7761424,32 25.5,32 L24,32 L24,38 L25.5,38 C25.7761424,38 26,38.2238576 26,38.5 L26,39.5 C26,39.7761424 25.7761424,40 25.5,40 C25.7761424,40 26,40.2238576 26,40.5 L26,41.5 C26,41.7761424 25.7761424,42 25.5,42 L24,42 L24,48 L25.5,48 C25.7761424,48 26,48.2238576 26,48.5 L26,49.5 C26,49.7761424 25.7761424,50 25.5,50 C25.7761424,50 26,50.2238576 26,50.5 L26,51.5 C26,51.7761424 25.7761424,52 25.5,52 L24,52 L24,58 L25.5,58 C25.7761424,58 26,58.2238576 26,58.5 L26,59.5 C26,59.7761424 25.7761424,60 25.5,60 C25.7761424,60 26,60.2238576 26,60.5 L26,61.5 C26,61.7761424 25.7761424,62 25.5,62 L24,62 L24,68 L25.5,68 C25.7761424,68 26,68.2238576 26,68.5 L26,69.5 C26,69.7761424 25.7761424,70 25.5,70 C25.7761424,70 26,70.2238576 26,70.5 L26,71.5 C26,71.7761424 25.7761424,72 25.5,72 L24,72 L24,78 L25.5,78 C25.7761424,78 26,78.2238576 26,78.5 L26,79.5 C26,79.7761424 25.7761424,80 25.5,80 L20.5,80 C20.2238576,80 20,79.7761424 20,79.5 L20,78.5 C20,78.2238576 20.2238576,78 20.5,78 L22,78 L22,72 L20.5,72 C20.2238576,72 20,71.7761424 20,71.5 L20,70.5 C20,70.2238576 20.2238576,70 20.5,70 C20.2238576,70 20,69.7761424 20,69.5 L20,68.5 C20,68.2238576 20.2238576,68 20.5,68 L22,68 L22,62 L20.5,62 C20.2238576,62 20,61.7761424 20,61.5 L20,60.5 C20,60.2238576 20.2238576,60 20.5,60 C20.2238576,60 20,59.7761424 20,59.5 L20,58.5 C20,58.2238576 20.2238576,58 20.5,58 L22,58 L22,52 L20.5,52 C20.2238576,52 20,51.7761424 20,51.5 L20,50.5 C20,50.2238576 20.2238576,50 20.5,50 C20.2238576,50 20,49.7761424 20,49.5 L20,48.5 C20,48.2238576 20.2238576,48 20.5,48 L22,48 L22,42 L20.5,42 C20.2238576,42 20,41.7761424 20,41.5 L20,40.5 C20,40.2238576 20.2238576,40 20.5,40 C20.2238576,40 20,39.7761424 20,39.5 Z M15,39.5 L15,32 L13.5,32 C13.2238576,32 13,31.7761424 13,31.5 L13,30.5 C13,30.2238576 13.2238576,30 13.5,30 L15.5,30 C15.2238576,30 15,29.7761424 15,29.5 L15,22 L13.5,22 C13.2238576,22 13,21.7761424 13,21.5 L13,20.5 C13,20.2238576 13.2238576,20 13.5,20 L15.5,20 C15.2238576,20 15,19.7761424 15,19.5 L15,12 L13.5,12 C13.2238576,12 13,11.7761424 13,11.5 L13,10.5 C13,10.2238576 13.2238576,10 13.5,10 L15.5,10 C15.2238576,10 15,9.77614237 15,9.5 L15,2 L13.5,2 C13.2238576,2 13,1.77614237 13,1.5 L13,0.5 C13,0.223857625 13.2238576,0 13.5,0 L18.5,0 C18.7761424,0 19,0.223857625 19,0.5 L19,1.5 C19,1.77614237 18.7761424,2 18.5,2 L17,2 L17,9.5 C17,9.77614237 16.7761424,10 16.5,10 L18.5,10 C18.7761424,10 19,10.2238576 19,10.5 L19,11.5 C19,11.7761424 18.7761424,12 18.5,12 L17,12 L17,19.5 C17,19.7761424 16.7761424,20 16.5,20 L18.5,20 C18.7761424,20 19,20.2238576 19,20.5 L19,21.5 C19,21.7761424 18.7761424,22 18.5,22 L17,22 L17,29.5 C17,29.7761424 16.7761424,30 16.5,30 L18.5,30 C18.7761424,30 19,30.2238576 19,30.5 L19,31.5 C19,31.7761424 18.7761424,32 18.5,32 L17,32 L17,39.5 C17,39.7761424 16.7761424,40 16.5,40 L18.5,40 C18.7761424,40 19,40.2238576 19,40.5 L19,41.5 C19,41.7761424 18.7761424,42 18.5,42 L17,42 L17,49.5 C17,49.7761424 16.7761424,50 16.5,50 L18.5,50 C18.7761424,50 19,50.2238576 19,50.5 L19,51.5 C19,51.7761424 18.7761424,52 18.5,52 L17,52 L17,59.5 C17,59.7761424 16.7761424,60 16.5,60 L18.5,60 C18.7761424,60 19,60.2238576 19,60.5 L19,61.5 C19,61.7761424 18.7761424,62 18.5,62 L17,62 L17,69.5 C17,69.7761424 16.7761424,70 16.5,70 L18.5,70 C18.7761424,70 19,70.2238576 19,70.5 L19,71.5 C19,71.7761424 18.7761424,72 18.5,72 L17,72 L17,79.5 C17,79.7761424 16.7761424,80 16.5,80 L15.5,80 C15.2238576,80 15,79.7761424 15,79.5 L15,72 L13.5,72 C13.2238576,72 13,71.7761424 13,71.5 L13,70.5 C13,70.2238576 13.2238576,70 13.5,70 L15.5,70 C15.2238576,70 15,69.7761424 15,69.5 L15,62 L13.5,62 C13.2238576,62 13,61.7761424 13,61.5 L13,60.5 C13,60.2238576 13.2238576,60 13.5,60 L15.5,60 C15.2238576,60 15,59.7761424 15,59.5 L15,52 L13.5,52 C13.2238576,52 13,51.7761424 13,51.5 L13,50.5 C13,50.2238576 13.2238576,50 13.5,50 L15.5,50 C15.2238576,50 15,49.7761424 15,49.5 L15,42 L13.5,42 C13.2238576,42 13,41.7761424 13,41.5 L13,40.5 C13,40.2238576 13.2238576,40 13.5,40 L15.5,40 C15.2238576,40 15,39.7761424 15,39.5 Z M6.5,39.5 L6.5,30.5 C6.5,30.2238576 6.72385763,30 7,30 C6.72385763,30 6.5,29.7761424 6.5,29.5 L6.5,20.5 C6.5,20.2238576 6.72385763,20 7,20 C6.72385763,20 6.5,19.7761424 6.5,19.5 L6.5,10.5 C6.5,10.2238576 6.72385763,10 7,10 C6.72385763,10 6.5,9.77614237 6.5,9.5 L6.5,0.5 C6.5,0.223857625 6.72385763,0 7,0 L12,0 C12.2761424,0 12.5,0.223857625 12.5,0.5 L12.5,9.5 C12.5,9.74545989 12.3231248,9.94960837 12.0898756,9.99194433 L12,10 C12.2761424,10 12.5,10.2238576 12.5,10.5 L12.5,19.5 C12.5,19.7454599 12.3231248,19.9496084 12.0898756,19.9919443 L12,20 C12.2761424,20 12.5,20.2238576 12.5,20.5 L12.5,29.5 C12.5,29.7454599 12.3231248,29.9496084 12.0898756,29.9919443 L12,30 C12.2761424,30 12.5,30.2238576 12.5,30.5 L12.5,39.5 C12.5,39.7454599 12.3231248,39.9496084 12.0898756,39.9919443 L12,40 C12.2761424,40 12.5,40.2238576 12.5,40.5 L12.5,49.5 C12.5,49.7454599 12.3231248,49.9496084 12.0898756,49.9919443 L12,50 C12.2761424,50 12.5,50.2238576 12.5,50.5 L12.5,59.5 C12.5,59.7454599 12.3231248,59.9496084 12.0898756,59.9919443 L12,60 C12.2761424,60 12.5,60.2238576 12.5,60.5 L12.5,69.5 C12.5,69.7454599 12.3231248,69.9496084 12.0898756,69.9919443 L12,70 C12.2761424,70 12.5,70.2238576 12.5,70.5 L12.5,79.5 C12.5,79.7454599 12.3231248,79.9496084 12.0898756,79.9919443 L12,80 L7,80 C6.72385763,80 6.5,79.7761424 6.5,79.5 L6.5,70.5 C6.5,70.2238576 6.72385763,70 7,70 C6.72385763,70 6.5,69.7761424 6.5,69.5 L6.5,60.5 C6.5,60.2238576 6.72385763,60 7,60 C6.72385763,60 6.5,59.7761424 6.5,59.5 L6.5,50.5 C6.5,50.2238576 6.72385763,50 7,50 C6.72385763,50 6.5,49.7761424 6.5,49.5 L6.5,40.5 C6.5,40.2238576 6.72385763,40 7,40 C6.72385763,40 6.5,39.7761424 6.5,39.5 Z M70.5,72 L68.5,72 L68.5,78 L70.5,78 L70.5,72 Z M10.5,72 L8.5,72 L8.5,78 L10.5,78 L10.5,72 Z M30.5,72 L28.5,72 L28.5,78 L30.5,78 L30.5,72 Z M50.5,72 L48.5,72 L48.5,78 L50.5,78 L50.5,72 Z M70.5,62 L68.5,62 L68.5,68 L70.5,68 L70.5,62 Z M50.5,62 L48.5,62 L48.5,68 L50.5,68 L50.5,62 Z M30.5,62 L28.5,62 L28.5,68 L30.5,68 L30.5,62 Z M10.5,62 L8.5,62 L8.5,68 L10.5,68 L10.5,62 Z M70.5,52 L68.5,52 L68.5,58 L70.5,58 L70.5,52 Z M10.5,52 L8.5,52 L8.5,58 L10.5,58 L10.5,52 Z M30.5,52 L28.5,52 L28.5,58 L30.5,58 L30.5,52 Z M50.5,52 L48.5,52 L48.5,58 L50.5,58 L50.5,52 Z M30.5,42 L28.5,42 L28.5,48 L30.5,48 L30.5,42 Z M10.5,42 L8.5,42 L8.5,48 L10.5,48 L10.5,42 Z M70.5,42 L68.5,42 L68.5,48 L70.5,48 L70.5,42 Z M50.5,42 L48.5,42 L48.5,48 L50.5,48 L50.5,42 Z M50.5,32 L48.5,32 L48.5,38 L50.5,38 L50.5,32 Z M30.5,32 L28.5,32 L28.5,38 L30.5,38 L30.5,32 Z M10.5,32 L8.5,32 L8.5,38 L10.5,38 L10.5,32 Z M70.5,32 L68.5,32 L68.5,38 L70.5,38 L70.5,32 Z M10.5,22 L8.5,22 L8.5,28 L10.5,28 L10.5,22 Z M30.5,22 L28.5,22 L28.5,28 L30.5,28 L30.5,22 Z M50.5,22 L48.5,22 L48.5,28 L50.5,28 L50.5,22 Z M70.5,22 L68.5,22 L68.5,28 L70.5,28 L70.5,22 Z M50.5,12 L48.5,12 L48.5,18 L50.5,18 L50.5,12 Z M30.5,12 L28.5,12 L28.5,18 L30.5,18 L30.5,12 Z M10.5,12 L8.5,12 L8.5,18 L10.5,18 L10.5,12 Z M70.5,12 L68.5,12 L68.5,18 L70.5,18 L70.5,12 Z M50.5,2 L48.5,2 L48.5,8 L50.5,8 L50.5,2 Z M30.5,2 L28.5,2 L28.5,8 L30.5,8 L30.5,2 Z M10.5,2 L8.5,2 L8.5,8 L10.5,8 L10.5,2 Z M70.5,2 L68.5,2 L68.5,8 L70.5,8 L70.5,2 Z" fill="#000000"></path>
</svg>