<svg width="80px" height="80px" viewBox="0 0 80 80" version="1.1" xmlns="http://www.w3.org/2000/svg" xmlns:xlink="http://www.w3.org/1999/xlink">
    <path d="M2,60 C0.8954305,60 0,59.1045695 0,58 L0,54 C0,52.8954305 0.8954305,52 2,52 L8,52 L8,28 L2,28 C0.8954305,28 0,27.1045695 0,26 L0,22 C0,20.8954305 0.8954305,20 2,20 L22,20 C23.1045695,20 24,20.8954305 24,22 L24,26 C24,27.1045695 23.1045695,28 22,28 L16,28 L16,52 L22,52 C23.1045695,52 24,52.8954305 24,54 L24,58 C24,59.1045695 23.1045695,60 22,60 L2,60 Z M30,60 C28.8954305,60 28,59.1045695 28,58 L28,22 C28,20.8954305 28.8954305,20 30,20 L50,20 C51.1045695,20 52,20.8954305 52,22 L52,58 C52,59.0543618 51.1841222,59.9181651 50.1492623,59.9945143 L50,60 L30,60 Z M44,28 L36,28 L36,52 L44,52 L44,28 Z M78,20 C79.1045695,20 80,20.8954305 80,22 L80,26 C80,27.1045695 79.1045695,28 78,28 L72,28 L72,58 C72,59.1045695 71.1045695,60 70,60 L66,60 C64.8954305,60 64,59.1045695 64,58 L64,28 L58,28 C56.8954305,28 56,27.1045695 56,26 L56,22 C56,20.8954305 56.8954305,20 58,20 L78,20 Z" fill="#000000"></path>
</svg>